<svg version="1.1" xmlns="http://www.w3.org/2000/svg" viewBox="0 0 297.436 137.821">
<g fill="currentColor">
    <path d="M244.109,90.458h-3.992v11.837h12.144v-2.889h-8.152V90.458z M227.929,93.876l2.179,3.698h-4.369L227.929,93.876z
         M236.983,102.295l-7.142-11.837h-3.794l-7.182,11.837h4.081l1.079-1.833h7.796l1.079,1.833H236.983z M211.743,98.168l-6.904-7.71
        h-4.567v11.837h3.992v-7.66l6.894,7.66h4.567V90.458h-3.982V98.168z M184.889,99.052c-0.742-0.231-1.337-0.578-1.803-1.048
        c-0.465-0.463-0.693-1.008-0.693-1.627s0.228-1.155,0.693-1.626c0.922-0.925,2.467-1.388,4.25-1.388
        c0.901,0,1.724,0.116,2.467,0.347c0.742,0.239,1.337,0.586,1.803,1.048c0.455,0.463,0.683,0.999,0.683,1.618
        s-0.228,1.164-0.693,1.627c-0.466,0.47-1.061,0.817-1.803,1.048c-0.743,0.23-1.566,0.346-2.457,0.346
        C186.444,99.397,185.632,99.282,184.889,99.052 M187.336,102.444c1.912,0,3.754-0.38,5.24-1.089
        c2.209-1.015,3.705-2.807,3.695-4.978c0-3.64-4.101-6.067-8.935-6.067c-2.388,0-4.645,0.611-6.27,1.651
        c-0.813,0.52-1.457,1.164-1.932,1.932c-0.486,0.768-0.724,1.594-0.724,2.485c0,0.892,0.238,1.717,0.724,2.485
        c0.475,0.768,1.119,1.412,1.932,1.932c0.812,0.52,1.763,0.925,2.852,1.214C184.998,102.295,186.137,102.444,187.336,102.444
         M170.379,102.295h3.992V90.458h-3.992V102.295z M165.894,94.115c-0.268-2.443-2.398-3.813-6.519-3.813
        c-4.516,0-6.944,1.271-6.944,3.739c0,0.702,0.258,1.254,0.763,1.659c0.505,0.405,1.337,0.76,2.496,1.074
        c0.327,0.09,0.793,0.173,1.398,0.248c0.604,0.074,1.168,0.149,1.714,0.215c0.544,0.074,1.069,0.156,1.595,0.247
        c1.04,0.198,1.724,0.529,1.724,0.966c0,0.372-0.258,0.686-0.763,0.933c-0.505,0.248-1.178,0.38-2.021,0.389
        c-1.99,0-3.12-0.471-3.318-1.305h-4.031c0,1.329,0.633,2.328,1.911,2.989c1.269,0.668,3.062,0.999,5.389,0.999
        c2.229,0,3.953-0.363,5.171-1.081c1.219-0.718,1.813-1.709,1.803-2.956c-0.01-0.957-0.504-1.692-1.446-2.22
        c-0.95-0.52-2.179-0.85-3.913-1.115c-0.336-0.041-0.762-0.074-1.287-0.099c-0.524-0.024-0.95-0.05-1.297-0.074
        c-0.347-0.017-0.704-0.05-1.05-0.107c-0.704-0.108-1.051-0.323-1.051-0.686c0-0.421,0.278-0.751,0.823-0.974
        c0.544-0.222,1.238-0.338,2.079-0.338c1.783,0,2.844,0.577,3.002,1.312H165.894z M148.038,94.115
        c-0.268-2.443-2.398-3.813-6.517-3.813c-4.518,0-6.944,1.271-6.944,3.739c0,0.702,0.257,1.254,0.762,1.659
        c0.505,0.405,1.337,0.76,2.497,1.074c0.327,0.09,0.792,0.173,1.396,0.248c0.605,0.074,1.168,0.149,1.714,0.215
        c0.545,0.074,1.069,0.156,1.595,0.247c1.04,0.198,1.724,0.529,1.724,0.966c0,0.372-0.258,0.686-0.763,0.933
        c-0.504,0.248-1.178,0.38-2.02,0.389c-1.991,0-3.121-0.471-3.318-1.305h-4.032c0,1.329,0.633,2.328,1.912,2.989
        c1.268,0.668,3.061,0.999,5.389,0.999c2.228,0,3.951-0.363,5.171-1.081c1.218-0.718,1.813-1.709,1.803-2.956
        c-0.01-0.957-0.505-1.692-1.447-2.22c-0.95-0.52-2.178-0.85-3.912-1.115c-0.337-0.041-0.763-0.074-1.289-0.099
        c-0.524-0.024-0.95-0.05-1.297-0.074c-0.347-0.017-0.703-0.05-1.05-0.107c-0.704-0.108-1.051-0.323-1.051-0.686
        c0-0.421,0.278-0.751,0.823-0.974c0.545-0.222,1.238-0.338,2.08-0.338c1.783,0,2.842,0.577,3.001,1.312H148.038z M130.326,90.458
        H118.44v11.837h11.886v-2.889h-7.895v-1.651h6.459v-2.758h-6.459v-1.642h7.895V90.458z M114.467,90.458h-11.886v11.837h3.992v-4.54
        h6.458v-2.758h-6.458v-1.642h7.894V90.458z M87.198,99.052c-0.743-0.231-1.337-0.578-1.803-1.048
        c-0.466-0.463-0.694-1.008-0.694-1.627s0.228-1.155,0.694-1.626c0.922-0.925,2.467-1.388,4.25-1.388
        c0.901,0,1.724,0.116,2.466,0.347c0.743,0.239,1.337,0.586,1.803,1.048c0.456,0.463,0.684,0.999,0.684,1.618
        s-0.228,1.164-0.694,1.627c-0.466,0.47-1.059,0.817-1.803,1.048c-0.742,0.23-1.565,0.346-2.456,0.346
        C88.753,99.397,87.942,99.282,87.198,99.052 M89.645,102.444c1.912,0,3.753-0.38,5.24-1.089c2.208-1.015,3.704-2.807,3.695-4.978
        c0-3.64-4.101-6.067-8.935-6.067c-2.388,0-4.646,0.611-6.271,1.651c-0.812,0.52-1.456,1.164-1.932,1.932
        c-0.485,0.768-0.722,1.594-0.722,2.485c0,0.892,0.238,1.717,0.722,2.485c0.476,0.768,1.12,1.412,1.932,1.932
        c0.813,0.52,1.763,0.925,2.853,1.214C87.307,102.295,88.446,102.444,89.645,102.444 M71.467,93.356
        c1.178,0,1.872,0.479,1.872,1.329c0,0.858-0.694,1.337-1.872,1.337h-4.21v-2.666H71.467z M74.766,98.283
        c0.793-0.346,1.416-0.841,1.882-1.486c0.456-0.643,0.684-1.37,0.684-2.187c0-1.205-0.476-2.196-1.427-2.98
        c-0.96-0.784-2.178-1.172-3.654-1.172h-8.984v11.837h3.991v-3.524h3.853l2.764,3.524h4.15L74.766,98.283z M49.395,96.022v-2.666
        h4.209c1.179,0,1.872,0.479,1.872,1.329c0,0.858-0.693,1.337-1.872,1.337H49.395z M45.403,90.458v11.837h3.992v-3.524h4.992
        c1.476,0,2.694-0.389,3.655-1.173c0.95-0.784,1.426-1.774,1.426-2.988c0-1.205-0.476-2.196-1.426-2.98
        c-0.961-0.784-2.179-1.172-3.655-1.172H45.403z"></path>
    <path d="M55.934,42.508l6.972,9.369h-13.94L55.934,42.508z M55.934,35.368L36.039,61.024h5.895l4.674-6.07h18.654l4.682,6.07h5.895
        L55.934,35.368z"></path>
    <polygon points="95.304,57.944 82.855,57.944 82.855,36.491 77.42,36.491 77.42,61.025 95.304,61.025     "></polygon>
    <polygon points="115.28,46.061 102.374,46.061 102.374,39.57 117.11,39.57 117.11,36.491 96.943,36.491 96.943,61.026
        102.374,61.026 102.374,49.142 115.28,49.142     "></polygon>
    <path d="M133.551,42.508l6.968,9.369h-13.936L133.551,42.508z M133.551,35.368l-19.907,25.656h5.894l4.683-6.07h18.657l4.673,6.07
        h5.901L133.551,35.368z"></path>
    <path d="M177.749,43.648c0-5.016-4.983-7.156-16.685-7.156h-6.03v24.53h5.426V50.876h2.781
        C172.468,50.876,177.749,48.244,177.749,43.648 M172.648,43.587c0,3.787-5.727,4.274-10.713,4.274h-1.475v-8.35h1.2
        C166.774,39.511,172.648,39.971,172.648,43.587"></path>
    <path d="M191.633,42.508l6.971,9.369h-13.939L191.633,42.508z M191.633,35.368l-19.703,25.4l-0.197,0.256h5.895l4.678-6.07h18.655
        l4.675,6.07h5.895L191.633,35.368z"></path>
    <path d="M235.837,43.555c0-2.485-2.103-4.76-5.489-5.933c-3.383-1.132-7.537-1.132-10.871-1.132h-6.361v24.535h5.433V50.779h1.904
        l12.068,10.246h6.707l-12.982-10.569C231.916,49.947,235.837,47.142,235.837,43.555 M230.737,43.682
        c0,3.787-5.727,4.274-10.714,4.274h-1.474V39.51h1.199C224.46,39.51,230.737,39.941,230.737,43.682"></path>
    <polygon points="241.233,36.493 241.233,61.025 246.664,61.025 246.664,49.144 259.524,49.144 259.524,46.061 246.664,46.061
        246.664,39.57 261.397,39.57 261.397,36.493     "></polygon>
    <polygon points="88.985,71.163 78.61,66.417 75.851,66.417 75.851,77.736 79.001,77.736 79.001,68.838 88.985,73.462
        98.966,68.838 98.966,77.736 102.117,77.736 102.117,66.417 99.36,66.417     "></polygon>
    <rect x="107.396" y="66.419" width="3.149" height="11.318"></rect>
    <path d="M144.748,66.342l-12.18,9.951V76.06h-13.594v-9.646h-3.145v11.32h14.979h1.761h2.054l4.356-3.565h13.073l4.356,3.565h3.813
        l-13.942-11.392H144.748z M141.01,72.494l4.486-3.693l4.511,3.693H141.01z"></path>
    <polygon points="184.272,75.164 164.029,66.418 161.606,66.418 161.606,77.737 164.755,77.737 164.755,68.987 184.944,77.698
        185.035,77.737 187.423,77.737 187.423,66.418 184.272,66.418     "></polygon>
    <path d="M206.637,66.279c-8.567,0-15.025,2.494-15.025,5.795c0,3.308,6.458,5.796,15.025,5.796c8.615,0,15.109-2.488,15.109-5.796
        C221.746,68.773,215.253,66.279,206.637,66.279 M218.434,72.074c0,1.944-4.48,4.051-11.717,4.051
        c-7.284,0-11.789-2.107-11.789-4.051c0-1.942,4.505-4.043,11.789-4.043C213.954,68.031,218.434,70.132,218.434,72.074"></path>
</g>
</svg>
